<?xml version="1.0" encoding="UTF-8" standalone="no"?>
<!-- Created with Inkscape (http://www.inkscape.org/) -->

<svg
   version="1.1"
   id="svg1"
   width="1024"
   height="1024"
   viewBox="0 0 1024 1024"
   sodipodi:docname="bugbane.svg"
   inkscape:version="1.4.2 (ebf0e940, 2025-05-08)"
   inkscape:export-filename="bugbane.png"
   inkscape:export-xdpi="24"
   inkscape:export-ydpi="24"
   xmlns:inkscape="http://www.inkscape.org/namespaces/inkscape"
   xmlns:sodipodi="http://sodipodi.sourceforge.net/DTD/sodipodi-0.dtd"
   xmlns="http://www.w3.org/2000/svg"
   xmlns:svg="http://www.w3.org/2000/svg">
  <defs
     id="defs1" />
  <sodipodi:namedview
     id="namedview1"
     pagecolor="#ffffff"
     bordercolor="#000000"
     borderopacity="0.25"
     inkscape:showpageshadow="2"
     inkscape:pageopacity="0.0"
     inkscape:pagecheckerboard="0"
     inkscape:deskcolor="#d1d1d1"
     inkscape:zoom="0.68232833"
     inkscape:cx="474.84471"
     inkscape:cy="543.72651"
     inkscape:window-width="1800"
     inkscape:window-height="1033"
     inkscape:window-x="198"
     inkscape:window-y="1124"
     inkscape:window-maximized="1"
     inkscape:current-layer="g1" />
  <g
     inkscape:groupmode="layer"
     inkscape:label="Image"
     id="g1"
     transform="translate(6.388032,4.7013683)">
    <rect
       style="display:inline;fill:#d85c59;fill-opacity:1;stroke-width:23.0273;stroke-linecap:round;stroke-linejoin:round"
       id="rect10"
       width="1000"
       height="1000"
       x="3.611968"
       y="5.2986317"
       ry="188.63243"
       rx="0" />
    <g
       id="g9"
       transform="matrix(1.5321863,0,0,1.5381546,-279.17162,-283.53354)">
      <path
         style="display:inline;fill:#550000"
         d="M 504,779.12091 C 405.48859,740.03278 345.16293,668.48997 329.77507,572.5 c -2.11032,-13.16421 -4.11616,-160.53786 -2.31564,-170.13544 0.82222,-4.3828 3.47408,-5.69908 16.60001,-8.23961 5.74231,-1.11143 22.14056,-4.54636 36.44056,-7.63319 104.05983,-22.4626 103.5,-22.41061 103.5,-9.61156 0,9.1011 -0.72678,9.65845 -17.19962,13.19004 -7.31521,1.5683 -33.55038,7.14634 -58.30038,12.39566 -24.75,5.24931 -48.26158,10.24742 -52.24795,11.10691 -9.37473,2.02125 -8.61417,-5.36087 -7.96171,77.27808 0.65126,82.48637 1.29339,89.33857 11.26149,120.17298 7.97454,24.66773 32.94638,69.16729 37.94817,67.62326 0.58621,-0.18095 1.2069,-7.10288 1.5,-16.72791 0.58754,-19.29379 0.147,-18.19852 12.33915,-30.67747 9.04547,-9.25825 9.04547,-9.25825 7.3884,-18 -0.91139,-4.80796 -1.96378,-11.81542 -2.33864,-15.57214 -0.59858,-5.99865 -0.9761,-6.94236 -3.10034,-7.75 -6.04615,-2.29874 -7.61611,-1.46491 -18.9799,10.08039 -12.02273,12.21476 -15.60134,13.70403 -21.59703,8.98781 -6.67443,-5.2501 -4.19252,-11.73416 10.05818,-26.27728 12.24574,-12.49703 14.39682,-13.70471 24.44806,-13.72584 9.16239,-0.0193 9.3073,-0.12566 11.18213,-8.20978 0.85493,-3.68636 2.66709,-9.4408 4.02703,-12.78764 2.8772,-7.08083 2.76296,-7.66221 -2.15907,-10.98727 -15.42792,-10.42228 -17.57436,-12.87229 -26.17512,-29.87718 -10.65405,-21.06452 -10.48785,-28.18528 0.66466,-28.47771 5.89093,-0.15447 8.78498,3.04135 16.72608,18.47015 C 418.07822,509.928 429.60517,522 435.2448,522 440.50472,522 443,515.84235 443,502.86236 c 0,-19.72745 4.53341,-33.56589 14.7006,-44.87425 2.36467,-2.63008 4.2994,-5.52014 4.2994,-6.42234 0,-3.45729 -9.14504,-10.60677 -20.55947,-16.07312 -14.84652,-7.10998 -17.67824,-11.49141 -11.88025,-18.38192 6.70647,-7.97019 27.4318,-0.45495 45.35642,16.44675 6.5833,6.20761 6.5833,6.20761 15.0833,3.44431 8.5,-2.76331 8.5,-2.76331 8.76039,-46.86089 0.26038,-44.09758 0.26038,-44.09758 -2,-44.59643 -1.24322,-0.27437 -5.18539,-0.99542 -8.76039,-1.60233 -46.39146,-7.87569 -75.37982,-32.50651 -85.60439,-72.73633 -5.32891,-20.96723 -4.23562,-22.71982 14.10439,-22.60999 49.23662,0.29485 85.08627,27.55244 96.88778,73.66673 1.81333,7.0856 2.87661,6.86839 4.91367,-1.0038 11.84549,-45.77672 42.85523,-69.72333 94.34062,-72.85254 17.54628,-1.06644 18.28116,-0.45271 16.34964,13.65435 -6.9388,50.67808 -40.4688,82.98594 -96.99171,93.45644 -5.225,0.9679 -9.95,2.30398 -10.5,2.96906 -0.64726,0.7827 -0.82363,14.3798 -0.5,38.54687 0.5,37.33763 0.5,37.33763 5.49645,38.61161 2.74805,0.70069 6.68943,2.0374 8.75861,2.97048 3.76215,1.69649 3.76215,1.69649 10.50354,-4.81177 19.62597,-18.94725 41.11091,-25.698 46.53698,-14.62233 3.28529,6.70591 0.95517,9.8041 -11.89945,15.82182 -20.98955,9.82599 -24.53823,14.51088 -17.44651,23.03244 10.74035,12.90584 14.16839,22.98182 14.61745,42.96482 0.17922,7.975 0.34994,14.79969 0.37939,15.16597 0.0294,0.36628 1.82582,2.06964 3.99194,3.78524 6.52274,5.1661 18.27877,-4.70452 27.00453,-22.67357 8.53666,-17.57964 12.90265,-21.47734 19.96619,-17.82463 7.40639,3.82999 6.96759,8.82482 -2.42238,27.57346 -8.20598,16.38462 -10.3635,19.01832 -22.92551,27.98529 -6.05524,4.32233 -7.58849,5.91311 -7.2174,7.48824 0.25915,1.1 1.8857,6.275 3.61455,11.5 1.72884,5.225 3.46701,10.625 3.86258,12 0.6807,2.36611 1.20013,2.53133 9.69913,3.08501 11.88746,0.77444 12.29743,1.00057 24.59681,13.5673 15.11561,15.44418 17.31825,21.4239 9.96976,27.06589 -5.16981,3.96924 -10.13262,1.50134 -22.19803,-11.03864 -9.61137,-9.98941 -9.61137,-9.98941 -14.4596,-9.32489 -6.20392,0.85034 -5.9749,0.48753 -7.35082,11.64533 -0.64432,5.225 -1.85307,12.14633 -2.6861,15.38073 -1.51462,5.88073 -1.51462,5.88073 8.43509,16 11.91729,12.1204 12.15955,12.7649 12.16722,32.36927 0.006,15.73515 0.26421,16.21813 5.34288,10 24.12087,-29.53269 40.30743,-72.23364 43.53426,-114.8456 1.08396,-14.31422 1.40191,-142.98154 0.35731,-144.59252 -0.42373,-0.65347 -30.40497,-7.47593 -66.62497,-15.16104 -36.62361,-7.77074 -66.40986,-14.56725 -67.10561,-15.31188 -0.68808,-0.73643 -1.51634,-4.39343 -1.84057,-8.12668 -0.74071,-8.52864 0.38602,-9.2077 13.84228,-8.34248 16.70237,1.07394 137.77662,26.70933 141.25,29.90726 4.5001,4.14323 3.10482,149.89023 -1.73968,181.72294 -13.18471,86.63522 -70.66468,154.82843 -165.27937,196.08448 -12.48771,5.44518 -13.33263,5.5752 -19.73095,3.03643 z m 17.22956,-24.66331 c 28.60063,-12.64946 68.02867,-38.56329 84.21538,-55.35003 3.94495,-4.09118 3.94495,-4.09118 1.31362,-6.84937 C 602.61678,687.91671 602,684.87699 602,668.8061 c 0,-15.0637 0,-15.0637 -3.67725,-19.1849 -5.74225,-6.43551 -5.70587,-6.44301 -10.32762,2.12797 -35.1733,65.22857 -115.42913,67.91822 -152.41646,5.108 -2.70672,-4.59644 -5.56768,-9.42779 -6.35768,-10.73633 -1.43635,-2.37916 -1.43635,-2.37916 -6.07867,2.2642 C 418.5,653.0284 418.5,653.0284 418.5,669.90943 c 0,16.88103 0,16.88103 -3.36097,21.06525 -3.36097,4.18422 -3.36097,4.18422 -0.5,7.18927 16.0486,16.85677 55.91374,43.22634 85.36097,56.46367 11.57738,5.20435 9.03193,5.22473 21.22956,-0.17002 z M 500.19506,597 c -0.16771,-45.925 -0.68394,-83.88123 -1.14718,-84.34718 -2.86879,-2.88561 -29.59497,7.83943 -38.84456,15.58807 -43.99064,36.8522 -23.43047,133.72339 32.12031,151.33787 9.09446,2.88374 8.21715,12.08761 7.87143,-82.57876 z m 29.74524,82.02011 C 581.34646,661.70263 603.35317,574.49431 566.50906,534.1052 555.57189,522.1157 525.79242,508.20906 521.63578,513.14994 519.67357,515.48235 520.56813,681 522.54294,681 c 0.83608,0 4.16489,-0.89095 7.39736,-1.97989 z M 471.59138,497.50029 c 23.51547,-9.40767 56.2299,-9.19284 78.17233,0.51334 7.21016,3.1894 7.58795,2.9561 7.00351,-4.32483 -4.07076,-50.71305 -88.91237,-51.11529 -92.55126,-0.4388 -0.55486,7.72719 -0.86653,7.54759 7.37542,4.25029 z m 76.56184,-167.09144 c 29.78574,-10.338 47.31054,-25.80555 56.30145,-49.69218 4.59012,-12.19482 3.79411,-13.13895 -8.64262,-10.25087 -23.05003,5.35272 -38.21474,16.05121 -49.43297,34.87428 C 539.33544,317.15862 534.04252,334 537.37184,334 c 0.23903,0 5.09065,-1.61602 10.78138,-3.59115 z M 492,321.1971 c 0,-2.98956 -7.41541,-17.28802 -12.35779,-23.82837 -11.47898,-15.19039 -30.41818,-25.6813 -52.03371,-28.8228 -4.8915,-0.71091 -4.8915,-0.71091 -4.23861,2.62158 2.25368,11.50327 13.15158,26.82204 25.19556,35.41645 C 462.61142,316.60695 492,326.49446 492,321.1971 Z"
         id="path9" />
      <path
         style="display:inline;fill:#800000"
         d="M 506,783.12091 C 407.48859,744.03278 347.16293,672.48997 331.77507,576.5 c -2.11032,-13.16421 -4.11616,-160.53786 -2.31564,-170.13544 0.82222,-4.3828 3.47408,-5.69908 16.60001,-8.23961 5.74231,-1.11143 22.14056,-4.54636 36.44056,-7.63319 104.05983,-22.4626 103.5,-22.41061 103.5,-9.61156 0,9.1011 -0.72678,9.65845 -17.19962,13.19004 -7.31521,1.5683 -33.55038,7.14634 -58.30038,12.39566 -24.75,5.24931 -48.26158,10.24742 -52.24795,11.10691 -9.37473,2.02125 -8.61417,-5.36087 -7.96171,77.27808 0.65126,82.48637 1.29339,89.33857 11.26149,120.17298 7.97454,24.66773 32.94638,69.16729 37.94817,67.62326 0.58621,-0.18095 1.2069,-7.10288 1.5,-16.72791 0.58754,-19.29379 0.147,-18.19852 12.33915,-30.67747 9.04547,-9.25825 9.04547,-9.25825 7.3884,-18 -0.91139,-4.80796 -1.96378,-11.81542 -2.33864,-15.57214 -0.59858,-5.99865 -0.9761,-6.94236 -3.10034,-7.75 -6.04615,-2.29874 -7.61611,-1.46491 -18.9799,10.08039 -12.02273,12.21476 -15.60134,13.70403 -21.59703,8.98781 -6.67443,-5.2501 -4.19252,-11.73416 10.05818,-26.27728 12.24574,-12.49703 14.39682,-13.70471 24.44806,-13.72584 9.16239,-0.0193 9.3073,-0.12566 11.18213,-8.20978 0.85493,-3.68636 2.66709,-9.4408 4.02703,-12.78764 2.8772,-7.08083 2.76296,-7.66221 -2.15907,-10.98727 -15.42792,-10.42228 -17.57436,-12.87229 -26.17512,-29.87718 -10.65405,-21.06452 -10.48785,-28.18528 0.66466,-28.47771 5.89093,-0.15447 8.78498,3.04135 16.72608,18.47015 C 420.07822,513.928 431.60517,526 437.2448,526 442.50472,526 445,519.84235 445,506.86236 c 0,-19.72745 4.53341,-33.56589 14.7006,-44.87425 2.36467,-2.63008 4.2994,-5.52014 4.2994,-6.42234 0,-3.45729 -9.14504,-10.60677 -20.55947,-16.07312 -14.84652,-7.10998 -17.67824,-11.49141 -11.88025,-18.38192 6.70647,-7.97019 27.4318,-0.45495 45.35642,16.44675 6.5833,6.20761 6.5833,6.20761 15.0833,3.44431 8.5,-2.76331 8.5,-2.76331 8.76039,-46.86089 0.26038,-44.09758 0.26038,-44.09758 -2,-44.59643 -1.24322,-0.27437 -5.18539,-0.99542 -8.76039,-1.60233 -46.39146,-7.87569 -75.37982,-32.50651 -85.60439,-72.73633 -5.32891,-20.96723 -4.23562,-22.71982 14.10439,-22.60999 49.23662,0.29485 85.08627,27.55244 96.88778,73.66673 1.81333,7.0856 2.87661,6.86839 4.91367,-1.0038 11.84549,-45.77672 42.85523,-69.72333 94.34062,-72.85254 17.54628,-1.06644 18.28116,-0.45271 16.34964,13.65435 -6.9388,50.67808 -40.4688,82.98594 -96.99171,93.45644 -5.225,0.9679 -9.95,2.30398 -10.5,2.96906 -0.64726,0.7827 -0.82363,14.3798 -0.5,38.54687 0.5,37.33763 0.5,37.33763 5.49645,38.61161 2.74805,0.70069 6.68943,2.0374 8.75861,2.97048 3.76215,1.69649 3.76215,1.69649 10.50354,-4.81177 19.62597,-18.94725 41.11091,-25.698 46.53698,-14.62233 3.28529,6.70591 0.95517,9.8041 -11.89945,15.82182 -20.98955,9.82599 -24.53823,14.51088 -17.44651,23.03244 10.74035,12.90584 14.16839,22.98182 14.61745,42.96482 0.17922,7.975 0.34994,14.79969 0.37939,15.16597 0.0294,0.36628 1.82582,2.06964 3.99194,3.78524 6.52274,5.1661 18.27877,-4.70452 27.00453,-22.67357 8.53666,-17.57964 12.90265,-21.47734 19.96619,-17.82463 7.40639,3.82999 6.96759,8.82482 -2.42238,27.57346 -8.20598,16.38462 -10.3635,19.01832 -22.92551,27.98529 -6.05524,4.32233 -7.58849,5.91311 -7.2174,7.48824 0.25915,1.1 1.8857,6.275 3.61455,11.5 1.72884,5.225 3.46701,10.625 3.86258,12 0.6807,2.36611 1.20013,2.53133 9.69913,3.08501 11.88746,0.77444 12.29743,1.00057 24.59681,13.5673 15.11561,15.44418 17.31825,21.4239 9.96976,27.06589 -5.16981,3.96924 -10.13262,1.50134 -22.19803,-11.03864 -9.61137,-9.98941 -9.61137,-9.98941 -14.4596,-9.32489 -6.20392,0.85034 -5.9749,0.48753 -7.35082,11.64533 -0.64432,5.225 -1.85307,12.14633 -2.6861,15.38073 -1.51462,5.88073 -1.51462,5.88073 8.43509,16 11.91729,12.1204 12.15955,12.7649 12.16722,32.36927 0.006,15.73515 0.26421,16.21813 5.34288,10 24.12087,-29.53269 40.30743,-72.23364 43.53426,-114.8456 1.08396,-14.31422 1.40191,-142.98154 0.35731,-144.59252 -0.42373,-0.65347 -30.40497,-7.47593 -66.62497,-15.16104 -36.62361,-7.77074 -66.40986,-14.56725 -67.10561,-15.31188 -0.68808,-0.73643 -1.51634,-4.39343 -1.84057,-8.12668 -0.74071,-8.52864 0.38602,-9.2077 13.84228,-8.34248 16.70237,1.07394 137.77662,26.70933 141.25,29.90726 4.5001,4.14323 3.10482,149.89023 -1.73968,181.72294 -13.18471,86.63522 -70.66468,154.82843 -165.27937,196.08448 -12.48771,5.44518 -13.33263,5.5752 -19.73095,3.03643 z m 17.22956,-24.66331 c 28.60063,-12.64946 68.02867,-38.56329 84.21538,-55.35003 3.94495,-4.09118 3.94495,-4.09118 1.31362,-6.84937 C 604.61678,691.91671 604,688.87699 604,672.8061 c 0,-15.0637 0,-15.0637 -3.67725,-19.1849 -5.74225,-6.43551 -5.70587,-6.44301 -10.32762,2.12797 -35.1733,65.22857 -115.42913,67.91822 -152.41646,5.108 -2.70672,-4.59644 -5.56768,-9.42779 -6.35768,-10.73633 -1.43635,-2.37916 -1.43635,-2.37916 -6.07867,2.2642 C 420.5,657.0284 420.5,657.0284 420.5,673.90943 c 0,16.88103 0,16.88103 -3.36097,21.06525 -3.36097,4.18422 -3.36097,4.18422 -0.5,7.18927 16.0486,16.85677 55.91374,43.22634 85.36097,56.46367 11.57738,5.20435 9.03193,5.22473 21.22956,-0.17002 z M 502.19506,601 c -0.16771,-45.925 -0.68394,-83.88123 -1.14718,-84.34718 -2.86879,-2.88561 -29.59497,7.83943 -38.84456,15.58807 -43.99064,36.8522 -23.43047,133.72339 32.12031,151.33787 9.09446,2.88374 8.21715,12.08761 7.87143,-82.57876 z m 29.74524,82.02011 C 583.34646,665.70263 605.35317,578.49431 568.50906,538.1052 557.57189,526.1157 527.79242,512.20906 523.63578,517.14994 521.67357,519.48235 522.56813,685 524.54294,685 c 0.83608,0 4.16489,-0.89095 7.39736,-1.97989 z M 473.59138,501.50029 c 23.51547,-9.40767 56.2299,-9.19284 78.17233,0.51334 7.21016,3.1894 7.58795,2.9561 7.00351,-4.32483 -4.07076,-50.71305 -88.91237,-51.11529 -92.55126,-0.4388 -0.55486,7.72719 -0.86653,7.54759 7.37542,4.25029 z m 76.56184,-167.09144 c 29.78574,-10.338 47.31054,-25.80555 56.30145,-49.69218 4.59012,-12.19482 3.79411,-13.13895 -8.64262,-10.25087 -23.05003,5.35272 -38.21474,16.05121 -49.43297,34.87428 C 541.33544,321.15862 536.04252,338 539.37184,338 c 0.23903,0 5.09065,-1.61602 10.78138,-3.59115 z M 494,325.1971 c 0,-2.98956 -7.41541,-17.28802 -12.35779,-23.82837 -11.47898,-15.19039 -30.41818,-25.6813 -52.03371,-28.8228 -4.8915,-0.71091 -4.8915,-0.71091 -4.23861,2.62158 2.25368,11.50327 13.15158,26.82204 25.19556,35.41645 C 464.61142,320.60695 494,330.49446 494,325.1971 Z"
         id="path11" />
    </g>
  </g>
</svg>
